<svg width="26" height="26" viewBox="0 0 26 26" fill="none" xmlns="http://www.w3.org/2000/svg">
<path d="M11.6613 0.802702C12.2078 -0.267567 13.7565 -0.267567 14.303 0.802702L15.7707 3.67675C16.1002 4.3223 16.8593 4.63247 17.555 4.40595L20.6526 3.39751C21.8061 3.02198 22.9013 4.10245 22.5206 5.2405L21.4985 8.29659C21.2689 8.98302 21.5832 9.73182 22.2375 10.057L25.1507 11.505C26.2356 12.0442 26.2356 13.5721 25.1507 14.1113L22.2375 15.5593C21.5832 15.8844 21.2689 16.6333 21.4985 17.3197L22.5206 20.3758C22.9013 21.5138 21.8061 22.5944 20.6526 22.2188L17.555 21.2103C16.8593 20.9838 16.1002 21.2939 15.7707 21.9395L14.303 24.8136C13.7565 25.8839 12.2078 25.8839 11.6613 24.8136L10.1937 21.9395C9.86405 21.2939 9.10507 20.9838 8.40931 21.2103L5.3117 22.2188C4.15819 22.5944 3.06304 21.5138 3.44367 20.3758L4.46582 17.3197C4.69541 16.6333 4.38102 15.8844 3.72671 15.5593L0.813608 14.1113C-0.271203 13.5721 -0.271203 12.0442 0.813608 11.505L3.72671 10.057C4.38102 9.73182 4.69541 8.98302 4.46582 8.29659L3.44367 5.2405C3.06304 4.10245 4.15819 3.02198 5.3117 3.39751L8.40931 4.40595C9.10507 4.63247 9.86405 4.3223 10.1937 3.67675L11.6613 0.802702Z" fill="#049B66"/>
<path d="M8.65479 12.8082L11.5397 15.7003L17.3096 9.916" stroke="#F1F9F5" stroke-width="2" stroke-linecap="round" stroke-linejoin="round"/>
</svg>
